<svg width="211" height="190" fill="none" xmlns="http://www.w3.org/2000/svg"><mask id="b" style="mask-type:alpha" maskUnits="userSpaceOnUse" x="0" y="0" width="211" height="190"><g opacity=".5"><path d="M104.587 69.307s11.403 9.278 11.403 24.546c0 23.194-22.613 41.748-22.613 41.748-1.815 4.421-5.827 8.464-9.839 12.507-.784.791-1.57 1.582-2.337 2.376l18.5-10.692c3.058 19.249 9.79 33.527 18.453 45.194-.437-1.273-.978-2.693-1.535-4.157-1.954-5.137-4.113-10.812-2.732-12.556.811-1.025 11.961 16.807 11.961 16.807-.717-3.672-1.681-7.034-3.541-10.707 4.044 4.731 7.556 9.782 10.776 15.007-.438-2.769-.896-5.547-1.353-8.326-3.111-18.883-6.221-37.765-3.177-53.57 9.532-2.152 18.62-3.42 27.709-4.687 1.265-.177 2.53-.353 3.796-.532 1.42-18.369 14.937-27.062 28.453-35.754l1.505-.968c-17.586 3.213-35.213 6.55-54.311 14.302 2.066-6.507 4.522-12.282 6.745-17.51 1.046-2.46 2.04-4.799 2.919-7.036 20.757-9.802 40.959-14.49 61.161-19.178 1.324-.307 2.649-.614 3.973-.923-29.075.548-40.503.075-45.034-3.479-2.47-1.938 3.479-8.31 3.479-8.31-2.956.235-5.72 1.56-8.311 3.865 2.457-4.197 6.151-6.37 9.844-8.542l.593-.349c-20.74 4.619-42.658 13.952-66.487 30.924ZM0 141.248l1.635-.611c17.916-6.694 67.59-25.254 67.59-45.962 0-5.544-5.526-9.012-11.857-12.984-8.49-5.328-18.43-11.564-18.43-24.937C38.939 22.65 107.4 5.09 131.833 0c-5.769 2.53-11.537 5.793-17.306 9.162 7.172-2.517 13.697-4.44 18.833-5.09-1.763.792-3.243 1.753-4.581 2.8 10.21-2.477 16.725-2.616 23.241-2.756.65-.014 1.3-.028 1.955-.044C136.158 7.89 76.46 28.759 76.46 49.882c0 9.265 6.343 12.85 13.466 16.877 9.116 5.153 19.51 11.029 19.51 30.46 0 40.212-67.514 64.757-67.514 64.757s9.183-9.312 7.96-12.074c-1.453-3.284-14.872-2.142-24.161-1.352-1.492.127-2.877.245-4.088.334l1.108-.349c10.767-3.384 21.535-6.768 29.94-12.886-18.6 5.458-36.16 6.85-52.681 5.599Z" fill="url(#a)"/><path d="M104.587 69.307s11.403 9.278 11.403 24.546c0 23.194-22.613 41.748-22.613 41.748-1.815 4.421-5.827 8.464-9.839 12.507-.784.791-1.57 1.582-2.337 2.376l18.5-10.692c3.058 19.249 9.79 33.527 18.453 45.194-.437-1.273-.978-2.693-1.535-4.157-1.954-5.137-4.113-10.812-2.732-12.556.811-1.025 11.961 16.807 11.961 16.807-.717-3.672-1.681-7.034-3.541-10.707 4.044 4.731 7.556 9.782 10.776 15.007-.438-2.769-.896-5.547-1.353-8.326-3.111-18.883-6.221-37.765-3.177-53.57 9.532-2.152 18.62-3.42 27.709-4.687 1.265-.177 2.53-.353 3.796-.532 1.42-18.369 14.937-27.062 28.453-35.754l1.505-.968c-17.586 3.213-35.213 6.55-54.311 14.302 2.066-6.507 4.522-12.282 6.745-17.51 1.046-2.46 2.04-4.799 2.919-7.036 20.757-9.802 40.959-14.49 61.161-19.178 1.324-.307 2.649-.614 3.973-.923-29.075.548-40.503.075-45.034-3.479-2.47-1.938 3.479-8.31 3.479-8.31-2.956.235-5.72 1.56-8.311 3.865 2.457-4.197 6.151-6.37 9.844-8.542l.593-.349c-20.74 4.619-42.658 13.952-66.487 30.924ZM0 141.248l1.635-.611c17.916-6.694 67.59-25.254 67.59-45.962 0-5.544-5.526-9.012-11.857-12.984-8.49-5.328-18.43-11.564-18.43-24.937C38.939 22.65 107.4 5.09 131.833 0c-5.769 2.53-11.537 5.793-17.306 9.162 7.172-2.517 13.697-4.44 18.833-5.09-1.763.792-3.243 1.753-4.581 2.8 10.21-2.477 16.725-2.616 23.241-2.756.65-.014 1.3-.028 1.955-.044C136.158 7.89 76.46 28.759 76.46 49.882c0 9.265 6.343 12.85 13.466 16.877 9.116 5.153 19.51 11.029 19.51 30.46 0 40.212-67.514 64.757-67.514 64.757s9.183-9.312 7.96-12.074c-1.453-3.284-14.872-2.142-24.161-1.352-1.492.127-2.877.245-4.088.334l1.108-.349c10.767-3.384 21.535-6.768 29.94-12.886-18.6 5.458-36.16 6.85-52.681 5.599Z" stroke="#000"/></g></mask><g mask="url(#b)"><path fill="url(#c)" d="M-19-49h279v281H-19z"/><path stroke="#000" d="M-19-49h279v281H-19z"/></g><defs><linearGradient id="a" x1="95.443" y1="64.362" x2="-2.426" y2="157.511" gradientUnits="userSpaceOnUse"><stop stop-color="#1846EC"/><stop offset=".5" stop-color="#02FF76"/></linearGradient><linearGradient id="c" x1="107.5" y1="46.5" x2="-36" y2="168.5" gradientUnits="userSpaceOnUse"><stop stop-color="#1846EC"/><stop offset=".5" stop-color="#02FF76"/></linearGradient></defs></svg>